<svg aria-hidden="true" style="position: absolute; width: 0; height: 0; overflow: hidden;" version="1.1" xmlns="http://www.w3.org/2000/svg" xmlns:xlink="http://www.w3.org/1999/xlink">
<defs>
<symbol id="icon-send" viewBox="0 0 32 32">
<path d="M29.106 15.591l-26.141-13.106c-0.106-0.053-0.228-0.066-0.344-0.038-0.266 0.066-0.431 0.334-0.366 0.603l2.694 11.006c0.041 0.166 0.162 0.3 0.325 0.353l4.616 1.584-4.612 1.584c-0.162 0.056-0.284 0.187-0.322 0.353l-2.7 11.022c-0.028 0.116-0.016 0.237 0.038 0.341 0.122 0.247 0.422 0.347 0.672 0.225l26.141-13.031c0.097-0.047 0.175-0.128 0.225-0.222 0.122-0.25 0.022-0.55-0.225-0.675zM5.338 25.822l1.572-6.425 9.225-3.166c0.072-0.025 0.131-0.081 0.156-0.156 0.044-0.131-0.025-0.272-0.156-0.319l-9.225-3.162-1.566-6.4 19.625 9.841-19.631 9.787z"></path>
</symbol>
<symbol id="icon-close-for-apartment" viewBox="0 0 32 32">
<path d="M8.3 6.415c-0.251-0.243-0.588-0.377-0.938-0.374s-0.684 0.143-0.931 0.39c-0.247 0.247-0.387 0.582-0.39 0.931s0.131 0.686 0.374 0.938l7.7 7.7-7.701 7.7c-0.127 0.123-0.229 0.27-0.299 0.433s-0.107 0.338-0.108 0.515c-0.002 0.177 0.032 0.353 0.099 0.516s0.166 0.313 0.291 0.438c0.125 0.125 0.274 0.224 0.438 0.291s0.339 0.101 0.516 0.099c0.177-0.001 0.352-0.038 0.515-0.108s0.31-0.171 0.433-0.299l7.701-7.7 7.7 7.7c0.251 0.243 0.588 0.377 0.938 0.374s0.684-0.143 0.931-0.391c0.247-0.247 0.387-0.582 0.391-0.931s-0.131-0.686-0.374-0.938l-7.7-7.7 7.7-7.7c0.243-0.251 0.377-0.588 0.374-0.938s-0.143-0.684-0.391-0.931c-0.247-0.247-0.582-0.387-0.931-0.39s-0.686 0.131-0.938 0.374l-7.7 7.7-7.7-7.7z"></path>
</symbol>

</defs>
</svg>
